PathFileType	4	(X/Y/Z)	/home/nbianco/projects/addbio/data/HamnerRunning2013/Processed/subject03//results/MarkerData/run200.trc
DataRate	CameraRate	NumFrames	NumMarkers	Units	OrigDataRate	OrigDataStartFrame	OrigNumFrames
100	100	8	45	m	100	54	219
Frame#	Time	C7			CLAV			LACR			LASI			LCAL			LFAradius			LFAsuperior			LFAulna			LLEL			LMEL			LMT5			LPSH			LPSI			LTB1			LTB2			LTB3			LTH1			LTH2			LTH3			LTOE			LUA1			LUA2			LUA3			RACR			RASI			RCAL			RFAradius			RFAsuperior			RFAulna			RLEL			RLMAL			RMEL			RMMAL			RMT5			RPSI			RTB1			RTB2			RTB3			RTH1			RTH2			RTH3			RTOE			RUA1			RUA2			RUA3		
		X1	Y1	Z1	X2	Y2	Z2	X3	Y3	Z3	X4	Y4	Z4	X5	Y5	Z5	X6	Y6	Z6	X7	Y7	Z7	X8	Y8	Z8	X9	Y9	Z9	X10	Y10	Z10	X11	Y11	Z11	X12	Y12	Z12	X13	Y13	Z13	X14	Y14	Z14	X15	Y15	Z15	X16	Y16	Z16	X17	Y17	Z17	X18	Y18	Z18	X19	Y19	Z19	X20	Y20	Z20	X21	Y21	Z21	X22	Y22	Z22	X23	Y23	Z23	X24	Y24	Z24	X25	Y25	Z25	X26	Y26	Z26	X27	Y27	Z27	X28	Y28	Z28	X29	Y29	Z29	X30	Y30	Z30	X31	Y31	Z31	X32	Y32	Z32	X33	Y33	Z33	X34	Y34	Z34	X35	Y35	Z35	X36	Y36	Z36	X37	Y37	Z37	X38	Y38	Z38	X39	Y39	Z39	X40	Y40	Z40	X41	Y41	Z41	X42	Y42	Z42	X43	Y43	Z43	X44	Y44	Z44	X45	Y45	Z45

55	0.74	0.974378	1.55956	-0.546699	1.0741	1.4537	-0.517032	1.00851	1.52464	-0.704559	1.01887	1.04008	-0.632814	0.754288	0.093199	-0.55668	1.10689	1.18694	-0.715662	0.947921	1.13172	-0.763143	1.10705	1.11828	-0.724514	0.874256	1.18578	-0.799381	0.852797	1.17958	-0.711555	0.920908	0.0535408	-0.643879	0.926326	1.48769	-0.712041	0.854404	1.07335	-0.553181	1.00266	0.380355	-0.633121	0.887878	0.313583	-0.657293	0.911799	0.211477	-0.607691	0.934412	0.822427	-0.68767	1.02055	0.72126	-0.685301	0.980235	0.616394	-0.671282	0.983748	0.0700031	-0.576529	0.924617	1.39028	-0.762012	0.860618	1.31381	-0.728174	0.871899	1.26297	-0.782677	1.01047	1.52465	-0.384902	1.03027	1.037	-0.395945	0.705326	0.283022	-0.439129	1.01044	1.03861	-0.29792	0.870585	1.15523	-0.213443	0.978362	1.00329	-0.250892	0.855789	1.23918	-0.20813	0.761435	0.267489	-0.370898	0.818222	1.2264	-0.287027	0.792663	0.250301	-0.449035	0.776529	0.157828	-0.322742	0.858446	1.06669	-0.464896	1.02677	0.403136	-0.410854	0.95756	0.404661	-0.366911	0.874956	0.303622	-0.395385	0.999395	0.774907	-0.355378	1.0944	0.729526	-0.379553	1.05601	0.615768	-0.38123	0.834921	0.10987	-0.385592	0.943932	1.39213	-0.283208	0.856175	1.35559	-0.294347	0.855483	1.30596	-0.241707
56	0.75	0.974528	1.56296	-0.546804	1.07395	1.45747	-0.515991	1.01141	1.52922	-0.703768	1.01984	1.04238	-0.632604	0.734833	0.0951708	-0.556672	1.11448	1.20256	-0.709713	0.959518	1.1384	-0.759466	1.11814	1.13381	-0.715712	0.88449	1.18796	-0.798547	0.860899	1.18275	-0.710814	0.901059	0.0538612	-0.644121	0.929243	1.49213	-0.71352	0.855324	1.07673	-0.553598	0.985987	0.380906	-0.633419	0.870298	0.315604	-0.657039	0.893694	0.213037	-0.608175	0.930201	0.82531	-0.687475	1.01292	0.721696	-0.684688	0.968942	0.618004	-0.671274	0.963978	0.0698526	-0.576659	0.930815	1.39392	-0.763083	0.866271	1.31709	-0.73103	0.880686	1.26527	-0.783289	1.00788	1.52817	-0.384879	1.03037	1.04082	-0.396186	0.726057	0.271842	-0.438297	0.998121	1.04599	-0.290816	0.858264	1.1652	-0.210087	0.964261	1.01113	-0.244673	0.844738	1.24908	-0.206122	0.783292	0.258473	-0.370518	0.807795	1.23576	-0.285115	0.815599	0.243485	-0.448199	0.804182	0.149306	-0.323199	0.858418	1.07038	-0.464864	1.04186	0.407462	-0.409354	0.972708	0.405286	-0.365408	0.894887	0.300931	-0.394382	1.00275	0.779935	-0.354227	1.09882	0.737064	-0.37754	1.06339	0.622303	-0.379299	0.865328	0.105593	-0.386686	0.937091	1.39884	-0.28216	0.849036	1.36344	-0.294905	0.846414	1.3153	-0.240839
57	0.76	0.974795	1.56687	-0.546502	1.0739	1.46182	-0.514701	1.01368	1.53462	-0.702622	1.02068	1.04492	-0.632552	0.716207	0.0984798	-0.557195	1.12068	1.21949	-0.703073	0.970567	1.14636	-0.755207	1.12782	1.15089	-0.706276	0.894674	1.19104	-0.797535	0.868224	1.18707	-0.710058	0.881322	0.0542517	-0.644271	0.931588	1.49726	-0.714029	0.856244	1.08068	-0.55386	0.969132	0.382403	-0.633867	0.852511	0.318441	-0.656751	0.875788	0.215449	-0.608831	0.925798	0.828745	-0.687144	1.0051	0.722767	-0.683956	0.957463	0.620486	-0.671269	0.944273	0.0697099	-0.576618	0.935462	1.39847	-0.763492	0.871433	1.32063	-0.734339	0.889835	1.26813	-0.783979	1.00533	1.53256	-0.384727	1.03058	1.04508	-0.396176	0.747921	0.259605	-0.437497	0.986727	1.05572	-0.284385	0.845963	1.17636	-0.207608	0.950571	1.02072	-0.240105	0.833726	1.26011	-0.204616	0.805959	0.248745	-0.370081	0.797294	1.24675	-0.28361	0.838973	0.236354	-0.447396	0.832855	0.140397	-0.323681	0.858897	1.07452	-0.465134	1.05651	0.411915	-0.407908	0.987487	0.405768	-0.363755	0.915107	0.297807	-0.393441	1.00597	0.785679	-0.352286	1.10275	0.744872	-0.375256	1.06992	0.629176	-0.377246	0.896953	0.101401	-0.387382	0.930351	1.40682	-0.281243	0.842149	1.37269	-0.29532	0.837726	1.32582	-0.240128
58	0.77	0.975146	1.5712	-0.545939	1.07395	1.46666	-0.513183	1.0154	1.54075	-0.701366	1.02148	1.04774	-0.632436	0.69833	0.103494	-0.558176	1.12533	1.23706	-0.69608	0.980731	1.15516	-0.750486	1.13584	1.16885	-0.696602	0.904431	1.19477	-0.796436	0.874917	1.19209	-0.709407	0.861661	0.0546326	-0.644257	0.933536	1.50284	-0.713807	0.857338	1.08515	-0.554045	0.9524	0.384874	-0.634461	0.834941	0.322095	-0.656556	0.858191	0.218666	-0.609526	0.921248	0.8328	-0.686667	0.997161	0.724544	-0.683185	0.945881	0.623796	-0.671097	0.924604	0.0696575	-0.576421	0.939162	1.40361	-0.763602	0.876528	1.3244	-0.737193	0.898698	1.27161	-0.784432	1.00291	1.5377	-0.384421	1.03095	1.04967	-0.395982	0.771031	0.246432	-0.43682	0.976204	1.06681	-0.278428	0.834035	1.18833	-0.206052	0.937472	1.03135	-0.236665	0.823	1.27193	-0.203831	0.829472	0.238521	-0.369626	0.787381	1.25879	-0.283001	0.862925	0.229079	-0.446819	0.862704	0.131494	-0.324058	0.860038	1.07911	-0.465639	1.07064	0.416338	-0.406444	1.00187	0.406071	-0.361972	0.935699	0.294336	-0.392496	1.0091	0.791895	-0.34996	1.10641	0.752728	-0.372959	1.07557	0.636306	-0.375002	0.929633	0.0974598	-0.387694	0.924063	1.41572	-0.280583	0.835808	1.38308	-0.295718	0.82956	1.33711	-0.239841
59	0.78	0.975586	1.57591	-0.545283	1.0741	1.4719	-0.511543	1.01685	1.54742	-0.70017	1.02248	1.05096	-0.632183	0.68108	0.110167	-0.559394	1.12842	1.25478	-0.689132	0.989799	1.1645	-0.74562	1.1421	1.18718	-0.687034	0.913484	1.19905	-0.795286	0.881062	1.19741	-0.70887	0.842092	0.0549673	-0.644126	0.935322	1.5086	-0.713202	0.858824	1.09006	-0.554269	0.936068	0.388316	-0.635219	0.817963	0.326623	-0.656592	0.841036	0.222635	-0.610229	0.916713	0.837489	-0.686056	0.989264	0.727051	-0.68248	0.934376	0.627899	-0.670778	0.904952	0.0697336	-0.576216	0.942607	1.40911	-0.763524	0.881648	1.32857	-0.739028	0.906668	1.27579	-0.784501	1.0008	1.54337	-0.384003	1.03159	1.05455	-0.395706	0.795355	0.232509	-0.436389	0.966385	1.07842	-0.272937	0.822728	1.20081	-0.205311	0.925105	1.04254	-0.2339	0.812754	1.28424	-0.203838	0.853862	0.227973	-0.369209	0.778518	1.27128	-0.283508	0.887839	0.221619	-0.44651	0.893792	0.122929	-0.324188	0.861669	1.0841	-0.466099	1.08405	0.420692	-0.404597	1.01578	0.406168	-0.360072	0.956657	0.29068	-0.391487	1.01203	0.798234	-0.348008	1.10987	0.760444	-0.370889	1.08028	0.643604	-0.372529	0.963218	0.0939618	-0.387691	0.918456	1.4251	-0.280219	0.830186	1.39422	-0.296279	0.821953	1.34883	-0.240153
60	0.79	0.976124	1.58098	-0.544608	1.07436	1.47743	-0.509908	1.01827	1.55433	-0.698991	1.02379	1.05471	-0.631798	0.664509	0.118148	-0.560702	1.13004	1.27223	-0.682461	0.997727	1.1742	-0.740956	1.14666	1.20546	-0.677864	0.921722	1.20382	-0.79412	0.88659	1.20285	-0.70837	0.822723	0.0553058	-0.644041	0.937134	1.5144	-0.712506	0.86064	1.09533	-0.554455	0.920316	0.392676	-0.636212	0.801734	0.332056	-0.656901	0.824467	0.227349	-0.611068	0.91244	0.842727	-0.685363	0.981634	0.730292	-0.681908	0.923266	0.632759	-0.67054	0.885264	0.0698279	-0.576178	0.946238	1.41483	-0.763194	0.886569	1.33327	-0.739754	0.913475	1.28068	-0.784231	0.999138	1.5493	-0.383543	1.03254	1.05972	-0.395412	0.820789	0.218087	-0.43627	0.957118	1.09	-0.26793	0.812124	1.21351	-0.205222	0.913533	1.05396	-0.231509	0.803119	1.2968	-0.204591	0.879105	0.217259	-0.368861	0.770815	1.28378	-0.28502	0.913894	0.213938	-0.44635	0.925957	0.114892	-0.324057	0.863481	1.08945	-0.466247	1.09652	0.424941	-0.402047	1.02911	0.406013	-0.358083	0.977854	0.286964	-0.39041	1.01453	0.804496	-0.346672	1.11291	0.767908	-0.369043	1.08397	0.650908	-0.369911	0.997566	0.0911678	-0.387374	0.913649	1.43461	-0.28013	0.825381	1.40564	-0.297208	0.814931	1.36067	-0.241134
61	0.8	0.976753	1.58631	-0.543892	1.0747	1.48315	-0.508359	1.0198	1.56114	-0.697626	1.02536	1.05899	-0.631277	0.648809	0.127042	-0.562069	1.13039	1.28904	-0.676121	1.00453	1.18406	-0.736707	1.14969	1.22327	-0.669343	0.929114	1.20909	-0.793007	0.891359	1.20841	-0.707836	0.803741	0.0557755	-0.644233	0.93908	1.52018	-0.711869	0.862527	1.10084	-0.554391	0.905231	0.397834	-0.637498	0.786226	0.338306	-0.657374	0.808602	0.232802	-0.612218	0.908655	0.848345	-0.684668	0.974479	0.734206	-0.681465	0.912852	0.638291	-0.670596	0.865435	0.069736	-0.576375	0.950158	1.42067	-0.762532	0.891003	1.3385	-0.7396	0.919168	1.2862	-0.783743	0.998012	1.5553	-0.383072	1.0338	1.06515	-0.395094	0.847246	0.203446	-0.436409	0.948337	1.10129	-0.263373	0.802218	1.22616	-0.205658	0.902761	1.06534	-0.229323	0.794174	1.30934	-0.206005	0.90511	0.206541	-0.368589	0.764104	1.29605	-0.287255	0.940842	0.206196	-0.44619	0.958871	0.107519	-0.323768	0.865274	1.09504	-0.465993	1.10794	0.429018	-0.398932	1.04177	0.405528	-0.356031	0.999097	0.283254	-0.389263	1.01637	0.810738	-0.345374	1.11516	0.775057	-0.367174	1.08654	0.65797	-0.367352	1.03247	0.0893857	-0.386685	0.909665	1.44396	-0.280248	0.821424	1.41689	-0.298687	0.808534	1.37242	-0.242766
62	0.81	0.977456	1.59174	-0.54308	1.0751	1.48895	-0.506908	1.02144	1.56761	-0.695948	1.02712	1.06368	-0.630591	0.634149	0.136589	-0.563498	1.1297	1.30492	-0.670137	1.01022	1.19391	-0.732914	1.15143	1.2402	-0.661691	0.935631	1.21481	-0.792011	0.89532	1.21412	-0.707299	0.785273	0.0564774	-0.644845	0.941195	1.52601	-0.711305	0.864346	1.10641	-0.553947	0.890886	0.403625	-0.639045	0.771393	0.345196	-0.657836	0.793546	0.238912	-0.613745	0.905485	0.854174	-0.684041	0.967925	0.738654	-0.681101	0.903296	0.644342	-0.670925	0.845384	0.0693519	-0.576722	0.9542	1.4266	-0.761538	0.894825	1.34415	-0.738938	0.923951	1.29222	-0.783151	0.997403	1.56123	-0.382551	1.03535	1.07078	-0.394695	0.874611	0.188883	-0.436641	0.940052	1.11217	-0.259235	0.793021	1.23851	-0.206557	0.892775	1.07647	-0.227277	0.785973	1.32162	-0.207991	0.93174	0.195993	-0.368373	0.758173	1.30797	-0.289966	0.968191	0.198729	-0.445957	0.992252	0.101028	-0.323378	0.86706	1.10068	-0.465404	1.11833	0.432833	-0.395786	1.05373	0.404623	-0.353924	1.0202	0.279602	-0.388042	1.01751	0.817043	-0.343492	1.11642	0.781777	-0.365025	1.0879	0.664485	-0.365091	1.06761	0.0888848	-0.385652	0.906432	1.45298	-0.280487	0.818258	1.42764	-0.300799	0.802786	1.38391	-0.244982
